<svg width="71" height="116" viewBox="0 0 71 116" fill="none" xmlns="http://www.w3.org/2000/svg">
<path d="M47.9432 43.2614C47.6705 40.5114 46.5 38.375 44.4318 36.8523C42.3636 35.3295 39.5568 34.5682 36.0114 34.5682C33.6023 34.5682 31.5682 34.9091 29.9091 35.5909C28.25 36.25 26.9773 37.1705 26.0909 38.3523C25.2273 39.5341 24.7955 40.875 24.7955 42.375C24.75 43.625 25.0114 44.7159 25.5795 45.6477C26.1705 46.5795 26.9773 47.3864 28 48.0682C29.0227 48.7273 30.2045 49.3068 31.5455 49.8068C32.8864 50.2841 34.3182 50.6932 35.8409 51.0341L42.1136 52.5341C45.1591 53.2159 47.9545 54.125 50.5 55.2614C53.0455 56.3977 55.25 57.7955 57.1136 59.4545C58.9773 61.1136 60.4205 63.0682 61.4432 65.3182C62.4886 67.5682 63.0227 70.1477 63.0455 73.0568C63.0227 77.3295 61.9318 81.0341 59.7727 84.1705C57.6364 87.2841 54.5455 89.7045 50.5 91.4318C46.4773 93.1364 41.625 93.9886 35.9432 93.9886C30.3068 93.9886 25.3977 93.125 21.2159 91.3977C17.0568 89.6705 13.8068 87.1136 11.4659 83.7273C9.14773 80.3182 7.93182 76.1023 7.81818 71.0795H22.1023C22.2614 73.4205 22.9318 75.375 24.1136 76.9432C25.3182 78.4886 26.9205 79.6591 28.9205 80.4545C30.9432 81.2273 33.2273 81.6136 35.7727 81.6136C38.2727 81.6136 40.4432 81.25 42.2841 80.5227C44.1477 79.7955 45.5909 78.7841 46.6136 77.4886C47.6364 76.1932 48.1477 74.7045 48.1477 73.0227C48.1477 71.4545 47.6818 70.1364 46.75 69.0682C45.8409 68 44.5 67.0909 42.7273 66.3409C40.9773 65.5909 38.8295 64.9091 36.2841 64.2955L28.6818 62.3864C22.7955 60.9545 18.1477 58.7159 14.7386 55.6705C11.3295 52.625 9.63636 48.5227 9.65909 43.3636C9.63636 39.1364 10.7614 35.4432 13.0341 32.2841C15.3295 29.125 18.4773 26.6591 22.4773 24.8864C26.4773 23.1136 31.0227 22.2273 36.1136 22.2273C41.2955 22.2273 45.8182 23.1136 49.6818 24.8864C53.5682 26.6591 56.5909 29.125 58.75 32.2841C60.9091 35.4432 62.0227 39.1023 62.0909 43.2614H47.9432Z" fill="#66FF7D"/>
<path d="M65.9343 42.9341L53.7435 58.7576L45.9623 43.2833L65.9343 42.9341Z" fill="#66FF7D"/>
<path d="M4.31818 72.3832L16.8138 56.7993L24.2931 72.4217L4.31818 72.3832Z" fill="#66FF7D"/>
</svg>
